<svg width="120" height="120" viewBox="0 0 120 120" fill="none" xmlns="http://www.w3.org/2000/svg">
<path d="M60.0002 120C93.0468 120 120 93.047 120 60.0002C120 26.9532 93.0468 0 60.0002 0C26.9535 0 0 26.9532 0 60.0002C0 93.047 26.9535 120 60.0002 120Z" fill="#FAFAFA"/>
<path fill-rule="evenodd" clip-rule="evenodd" d="M60 102C83.196 102 102 83.1964 102 60.0005C102 36.8045 83.196 18.0005 60 18.0005C36.804 18.0005 18 36.8045 18 60.0005C18 83.1964 36.804 102 60 102Z" fill="#F7F7F7"/>
<mask id="mask0" mask-type="alpha" maskUnits="userSpaceOnUse" x="15" y="15" width="91" height="91">
<path fill-rule="evenodd" clip-rule="evenodd" d="M60.0003 105.001C84.8533 105.001 105.001 84.8533 105.001 60.0003C105.001 35.1473 84.8533 15 60.0003 15C35.1473 15 15 35.1473 15 60.0003C15 84.8533 35.1473 105.001 60.0003 105.001Z" fill="white"/>
</mask>
<g mask="url(#mask0)">
<path d="M37.4648 46.5645H115.295V105.119H37.4648V46.5645Z" fill="#F0F4F8"/>
<path d="M37.4648 46.5645H115.295V100.243H37.4648V46.5645Z" fill="#F0F4F8"/>
<path d="M37.4648 53.5645C37.4648 49.6985 40.5989 46.5645 44.4648 46.5645H115.295V60.5247H37.4648V53.5645Z" fill="#009AE0"/>
<path d="M51.873 71.0635H56.1836V75.3105H51.873V71.0635Z" fill="#93CDE8"/>
<path d="M51.873 77.9062H56.1836V82.1533H51.873V77.9062Z" fill="#93CDE8"/>
<path d="M51.873 84.7881H56.1836V89.0352H51.873V84.7881Z" fill="#93CDE8"/>
<path d="M51.873 91.6309H56.1836V95.8779H51.873V91.6309Z" fill="#93CDE8"/>
<path d="M59.5762 71.0635H63.8867V75.3105H59.5762V71.0635Z" fill="#93CDE8"/>
<path d="M59.5762 77.9062H63.8867V82.1533H59.5762V77.9062Z" fill="#93CDE8"/>
<path d="M59.5762 84.7881H63.8867V89.0352H59.5762V84.7881Z" fill="#93CDE8"/>
<path d="M59.5762 91.6309H63.8867V95.8779H59.5762V91.6309Z" fill="#93CDE8"/>
<path d="M67.2402 71.0635H71.5508V75.3105H67.2402V71.0635Z" fill="#93CDE8"/>
<path d="M67.2402 77.9062H71.5508V82.1533H67.2402V77.9062Z" fill="#93CDE8"/>
<path d="M67.2402 84.7881H71.5508V89.0352H67.2402V84.7881Z" fill="#93CDE8"/>
<path d="M67.2402 91.6309H71.5508V95.8779H67.2402V91.6309Z" fill="#93CDE8"/>
<path d="M74.9434 71.0635H79.2539V75.3105H74.9434V71.0635Z" fill="#93CDE8"/>
<path d="M74.9434 77.9062H79.2539V82.1533H74.9434V77.9062Z" fill="#93CDE8"/>
<path d="M74.9434 84.7881H79.2539V89.0352H74.9434V84.7881Z" fill="#93CDE8"/>
<path d="M74.9434 91.6309H79.2539V95.8779H74.9434V91.6309Z" fill="#93CDE8"/>
<path d="M82.6064 71.0635H86.917V75.3105H82.6064V71.0635Z" fill="#93CDE8"/>
<path d="M82.6064 77.9062H86.917V82.1533H82.6064V77.9062Z" fill="#93CDE8"/>
<path d="M82.6064 84.7881H86.917V89.0352H82.6064V84.7881Z" fill="#93CDE8"/>
<path d="M82.6064 91.6309H86.917V95.8779H82.6064V91.6309Z" fill="#E1E8ED"/>
<path d="M90.2695 71.0635H94.5801V75.3105H90.2695V71.0635Z" fill="#93CDE8"/>
<path d="M90.2695 77.9062H94.5801V82.1533H90.2695V77.9062Z" fill="#93CDE8"/>
<path d="M90.2695 84.7881H94.5801V89.0352H90.2695V84.7881Z" fill="#E1E8ED"/>
<path d="M90.2695 91.6309H94.5801V95.8779H90.2695V91.6309Z" fill="#E1E8ED"/>
<path d="M97.9727 71.0635H102.283V75.3105H97.9727V71.0635Z" fill="#E1E8ED"/>
<path d="M90.2695 63.8281H94.5801V68.0752H90.2695V63.8281Z" fill="#93CDE8"/>
<path d="M97.9727 63.8281H102.283V68.0752H97.9727V63.8281Z" fill="#E1E8ED"/>
<path d="M97.9727 77.9062H102.283V82.1533H97.9727V77.9062Z" fill="#E1E8ED"/>
<path d="M97.9727 84.7881H102.283V89.0352H97.9727V84.7881Z" fill="#E1E8ED"/>
<path d="M97.9727 91.6309H102.283V95.8779H97.9727V91.6309Z" fill="#E1E8ED"/>
<rect x="46.9844" y="42.7637" width="3.8855" height="7.94737" rx="1.94275" fill="#636363" stroke="white"/>
<rect x="58.7402" y="42.7637" width="3.8855" height="7.94737" rx="1.94275" fill="#636363" stroke="white"/>
<rect x="70.4961" y="42.7637" width="3.8855" height="7.94737" rx="1.94275" fill="#636363" stroke="white"/>
<rect x="82.252" y="42.7637" width="3.8855" height="7.94737" rx="1.94275" fill="#636363" stroke="white"/>
<rect x="93.1523" y="42.7637" width="3.8855" height="7.94737" rx="1.94275" fill="#636363" stroke="white"/>
</g>
</svg>
